<!DOCTYPE svg PUBLIC "-//W3C//DTD SVG 20010904//EN" "http://www.w3.org/TR/2001/REC-SVG-20010904/DTD/svg10.dtd">
<svg version="1.0" xmlns="http://www.w3.org/2000/svg" width="18px" height="18px" viewBox="0 0 180 180" preserveAspectRatio="xMidYMid meet">
<g id="layer101" fill="#2a67ef" stroke="none">
 <path d="M12 168 c-16 -16 -16 -140 0 -156 16 -16 140 -16 156 0 16 16 16 140 0 156 -16 16 -140 16 -156 0z"/>
 </g>
<g id="layer102" fill="#6293f5" stroke="none">
 <path d="M52 148 c-11 -14 -14 -81 -6 -110 4 -12 15 -18 33 -18 28 0 57 21 45 33 -4 4 -1 20 6 37 11 26 10 33 -5 50 -20 23 -57 26 -73 8z m58 -23 c24 -29 -4 -38 -30 -10 -23 24 -23 25 -3 25 11 0 26 -7 33 -15z m-10 -70 c11 -13 8 -15 -14 -15 -16 0 -26 5 -26 15 0 19 24 19 40 0z"/>
 </g>
<g id="layer103" fill="#b4c9f9" stroke="none">
 <path d="M54 146 c-3 -7 -4 -38 -2 -67 3 -53 4 -54 33 -54 26 0 30 4 30 27 0 14 3 30 8 34 4 4 7 18 7 30 0 36 -64 61 -76 30z m63 -22 c11 -29 -12 -35 -37 -9 l-23 25 27 0 c15 0 29 -7 33 -16z m-13 -70 c4 -10 -2 -14 -19 -14 -18 0 -25 5 -25 19 0 14 5 18 19 14 11 -3 22 -11 25 -19z"/>
 </g>
<g id="layer104" fill="#fafcff" stroke="none">
 <path d="M50 91 c0 -34 3 -61 8 -61 4 0 6 25 5 55 -3 53 -3 55 22 55 28 0 41 -20 30 -47 -6 -16 -8 -15 -26 7 -18 23 -19 23 -9 3 6 -13 7 -23 3 -23 -4 0 1 -6 12 -13 11 -9 15 -19 10 -27 -6 -9 -4 -11 4 -6 7 5 10 14 7 22 -3 8 0 24 7 34 17 28 -2 54 -42 58 l-31 3 0 -60z"/>
 </g>

</svg>